<?xml version="1.0" encoding="UTF-8" standalone="no"?>
<!-- Created with Inkscape (http://www.inkscape.org/) -->

<svg
   xmlns:dc="http://purl.org/dc/elements/1.1/"
   xmlns:cc="http://creativecommons.org/ns#"
   xmlns:rdf="http://www.w3.org/1999/02/22-rdf-syntax-ns#"
   xmlns:svg="http://www.w3.org/2000/svg"
   xmlns="http://www.w3.org/2000/svg"
   xmlns:sodipodi="http://sodipodi.sourceforge.net/DTD/sodipodi-0.dtd"
   xmlns:inkscape="http://www.inkscape.org/namespaces/inkscape"
   width="210mm"
   height="297mm"
   viewBox="0 0 744.09448819 1052.3622047"
   id="svg4191"
   version="1.1"
   inkscape:version="0.91 r13725"
   inkscape:export-filename="/home/strzibny/projects/invoicebar/public/logo.png"
   inkscape:export-xdpi="90"
   inkscape:export-ydpi="90"
   sodipodi:docname="invoicebar_logo.svg">
  <defs
     id="defs4193" />
  <sodipodi:namedview
     id="base"
     pagecolor="#ffffff"
     bordercolor="#666666"
     borderopacity="1.0"
     inkscape:pageopacity="0.0"
     inkscape:pageshadow="2"
     inkscape:zoom="1.4"
     inkscape:cx="184.73902"
     inkscape:cy="837.91356"
     inkscape:document-units="px"
     inkscape:current-layer="layer1"
     showgrid="false"
     inkscape:window-width="1920"
     inkscape:window-height="1016"
     inkscape:window-x="0"
     inkscape:window-y="27"
     inkscape:window-maximized="1" />
  <metadata
     id="metadata4196">
    <rdf:RDF>
      <cc:Work
         rdf:about="">
        <dc:format>image/svg+xml</dc:format>
        <dc:type
           rdf:resource="http://purl.org/dc/dcmitype/StillImage" />
        <dc:title></dc:title>
      </cc:Work>
    </rdf:RDF>
  </metadata>
  <g
     inkscape:label="Layer 1"
     inkscape:groupmode="layer"
     id="layer1">
    <circle
       style="fill:#e6f2f2;fill-opacity:1;stroke:none;stroke-width:15;stroke-miterlimit:4;stroke-dasharray:none;stroke-opacity:1"
       id="path4376"
       cx="77.857155"
       cy="78.790771"
       r="77.5" />
    <path
       style="fill:#000000;fill-opacity:0"
       id="path4136-7"
       d="m 41.165297,46.48981 c 0.98175,1.52244 2.23528,2.85172 3.46417,4.17472 2.02925,2.07598 4.00041,4.20207 5.87074,6.42228 1.39552,1.71027 2.67195,3.51099 3.84433,5.37999 0.9507,1.56445 1.72499,3.2221 2.44565,4.90172 0.81605,1.85435 1.62868,3.70752 2.37879,5.58965 0.60377,1.56763 1.15002,3.15672 1.62394,4.76832 0.30447,1.17024 0.71696,2.3019 1.20433,3.406566 0.30919,0.70598 0.4972,1.45172 0.75822,2.17572 0.46812,1.31607 1.06159,2.58417 1.67374,3.83833 0.38746,0.8426 0.89094,1.62335 1.29581,2.4565 0,0 -2.98911,1.68986 -2.98911,1.68986 l 0,0 c -0.3714,-0.84753 -0.84425,-1.64484 -1.23323,-2.48435 -0.61185,-1.26364 -1.2253,-2.53036 -1.7326,-3.84029 -0.0181,-0.0455 -0.29506,-0.73729 -0.32284,-0.82041 -0.1487,-0.44507 -0.2157,-0.91849 -0.42845,-1.34286 -0.46833,-1.13017 -0.8903,-2.276336 -1.18073,-3.467456 -0.45452,-1.60854 -1.00074,-3.18925 -1.58157,-4.75631 -0.72625,-1.88836 -1.54567,-3.7343 -2.36787,-5.58254 -0.72279,-1.66086 -1.5089,-3.29224 -2.43215,-4.85285 -1.14396,-1.86543 -2.37837,-3.67446 -3.75166,-5.38032 -1.85369,-2.22746 -3.813,-4.35782 -5.86924,-6.40068 -1.27054,-1.32694 -2.54095,-2.66381 -3.65855,-4.12455 0,0 2.98828,-1.75104 2.98828,-1.75104 z"
       inkscape:connector-curvature="0" />
    <path
       style="fill:none;fill-rule:evenodd;stroke:#000000;stroke-width:4.24788952;stroke-linecap:butt;stroke-linejoin:miter;stroke-miterlimit:4;stroke-dasharray:none;stroke-opacity:1"
       d="M 128.31942,39.15373 78.111817,82.875196"
       id="path4142-3"
       inkscape:connector-curvature="0" />
    <path
       style="fill:none;fill-opacity:1;fill-rule:evenodd;stroke:#000000;stroke-width:6.43787479;stroke-linecap:butt;stroke-linejoin:miter;stroke-miterlimit:4;stroke-dasharray:none;stroke-opacity:1"
       d="m 77.833567,82.718546 0.68878,57.466984 -0.34438,0.43371"
       id="path4163-7"
       inkscape:connector-curvature="0" />
    <path
       style="fill:none;fill-rule:evenodd;stroke:#000000;stroke-width:4.90314388;stroke-linecap:butt;stroke-linejoin:miter;stroke-miterlimit:4;stroke-dasharray:none;stroke-opacity:1"
       d="M 27.404457,39.067 77.799477,82.951456 27.404457,39.067 Z"
       id="path4142-7-1"
       inkscape:connector-curvature="0" />
    <path
       style="fill:#ff8080;fill-opacity:1;fill-rule:evenodd;stroke:none;stroke-width:5.0999999;stroke-linecap:butt;stroke-linejoin:miter;stroke-miterlimit:4;stroke-dasharray:none;stroke-opacity:1"
       d="m 124.51895,38.06618 -92.648693,0.16311 c -0.019,0.0893 -0.05,0.1767 -0.083,0.26271 l 46.21603,38.33787 46.515663,-38.76369 z"
       id="path4205-2"
       inkscape:connector-curvature="0" />
    <path
       style="fill:none;fill-rule:evenodd;stroke:#000000;stroke-width:0.3264845px;stroke-linecap:butt;stroke-linejoin:miter;stroke-opacity:1"
       d="m 135.85656,81.490156 c 0,-0.19584 0,-0.3917 0,-0.58755"
       id="path4221-2"
       inkscape:connector-curvature="0" />
    <path
       style="fill:none;fill-rule:evenodd;stroke:#003827;stroke-width:7.3819828;stroke-linecap:butt;stroke-linejoin:miter;stroke-miterlimit:4;stroke-dasharray:none;stroke-opacity:0.23529412"
       d="M 123.53801,17.46903 76.515317,77.2619"
       id="path4223-1"
       inkscape:connector-curvature="0" />
    <path
       style="fill:none;fill-rule:evenodd;stroke:#000000;stroke-width:3.54944038;stroke-linecap:butt;stroke-linejoin:miter;stroke-miterlimit:4;stroke-dasharray:none;stroke-opacity:1"
       d="m 53.047767,141.57571 50.293553,-0.068"
       id="path4225-5"
       inkscape:connector-curvature="0" />
  </g>
</svg>
